<svg version="1.1" id="Layer_1" xmlns="http://www.w3.org/2000/svg" xmlns:xlink="http://www.w3.org/1999/xlink" x="0px" y="0px"
	 viewBox="0 0 88.1 32.1" style="enable-background:new 0 0 88.1 32.1; -webkit-filter: invert(100%);
    filter: invert(100%);" xml:space="preserve">
<style type="text/css">
	.st0{fill:#FFFFFF;}
</style>
<g id="Group_39" transform="translate(-20 -50.937)">
	<rect id="Rectangle_1" x="20" y="50.9" width="88.1" height="32.1"/>
	<rect id="Rectangle_2" x="66.6" y="59.1" class="st0" width="6.3" height="1.9"/>
	<path id="Path_1" class="st0" d="M52.6,69.5c0-0.8-0.2-1.6-0.6-2.3c-0.4-0.6-1-0.9-1.7-0.8c-0.7,0-1.3,0.3-1.7,0.8
		c-0.4,0.7-0.6,1.5-0.6,2.3c0,0.8,0.2,1.6,0.6,2.3c0.4,0.6,1,0.9,1.7,0.9c0.7,0,1.3-0.3,1.7-0.9C52.4,71.1,52.6,70.3,52.6,69.5
		 M55.8,69.5c0,0.8-0.1,1.6-0.4,2.4c-0.2,0.7-0.6,1.3-1.1,1.9c-0.5,0.5-1.1,0.9-1.7,1.2c-1.5,0.6-3.1,0.6-4.5,0
		c-0.7-0.3-1.2-0.7-1.7-1.2c-0.5-0.5-0.9-1.2-1.1-1.9c-0.3-0.8-0.4-1.6-0.4-2.4c0-0.8,0.1-1.6,0.4-2.4c0.3-0.7,0.6-1.3,1.2-1.9
		c0.5-0.5,1.1-0.9,1.7-1.2c0.7-0.3,1.4-0.4,2.2-0.4c0.8,0,1.5,0.1,2.2,0.4c0.7,0.3,1.2,0.7,1.7,1.2c0.5,0.5,0.9,1.2,1.1,1.9
		C55.7,67.8,55.8,68.6,55.8,69.5"/>
	<path id="Path_2" class="st0" d="M62.7,75.3c-0.8,0-1.5-0.1-2.2-0.3c-0.5-0.1-1-0.4-1.4-0.8c-0.3-0.3-0.6-0.8-0.7-1.2
		c-0.1-0.5-0.2-1.1-0.2-1.6V59.1l3.2-0.5v12.2c0,0.3,0,0.5,0.1,0.8c0,0.2,0.1,0.4,0.2,0.6c0.1,0.2,0.3,0.3,0.5,0.4
		c0.3,0.1,0.6,0.2,0.9,0.2L62.7,75.3z"/>
	<path id="Path_3" class="st0" d="M71.9,68.4c0-0.3-0.1-0.5-0.1-0.8c-0.1-0.2-0.2-0.5-0.4-0.7c-0.2-0.2-0.4-0.4-0.6-0.5
		c-0.3-0.1-0.6-0.2-0.9-0.2c-0.3,0-0.6,0.1-0.9,0.2c-0.2,0.1-0.5,0.3-0.6,0.5c-0.2,0.2-0.3,0.4-0.4,0.7c-0.1,0.3-0.2,0.5-0.2,0.8
		H71.9z M64.5,69.6c0-0.9,0.1-1.8,0.5-2.6c0.3-0.7,0.7-1.3,1.2-1.9c0.5-0.5,1.1-0.9,1.7-1.1c0.6-0.3,1.3-0.4,2-0.4
		c1.4-0.1,2.8,0.5,3.8,1.5c1,1.2,1.5,2.7,1.4,4.3c0,0.2,0,0.4,0,0.6s0,0.4,0,0.6h-7.2c0.1,0.6,0.4,1.2,0.9,1.6
		c0.6,0.4,1.4,0.6,2.2,0.6c0.6,0,1.1-0.1,1.7-0.2c0.5-0.1,0.9-0.2,1.4-0.4l0.4,2.6c-0.2,0.1-0.4,0.2-0.7,0.3
		c-0.3,0.1-0.6,0.2-0.9,0.2c-0.3,0.1-0.7,0.1-1.1,0.2c-0.4,0-0.8,0.1-1.2,0.1c-0.9,0-1.8-0.1-2.6-0.4c-0.7-0.3-1.3-0.7-1.9-1.2
		c-0.5-0.5-0.9-1.2-1.1-1.8C64.6,71.1,64.5,70.3,64.5,69.6"/>
	<path id="Path_4" class="st0" d="M81.7,72.9c0.3,0,0.6,0,0.9,0c0.2,0,0.5,0,0.7-0.1v-2.4c-0.1,0-0.3-0.1-0.6-0.1
		c-0.2,0-0.5,0-0.7,0c-0.3,0-0.6,0-0.8,0.1c-0.2,0-0.5,0.1-0.7,0.2c-0.2,0.1-0.4,0.2-0.5,0.4c-0.1,0.2-0.2,0.4-0.2,0.6
		c0,0.4,0.2,0.8,0.5,1C80.8,72.8,81.3,72.9,81.7,72.9 M81.5,63.6c0.8,0,1.6,0.1,2.3,0.3c0.6,0.2,1.1,0.5,1.5,0.9
		c0.4,0.4,0.7,0.9,0.8,1.4c0.2,0.6,0.2,1.3,0.2,1.9v6.6c-0.5,0.1-1.1,0.2-1.9,0.4c-1,0.1-2,0.2-2.9,0.2c-0.7,0-1.3-0.1-2-0.2
		C79,75,78.5,74.8,78,74.5c-0.4-0.3-0.8-0.7-1-1.1c-0.2-0.5-0.4-1.1-0.3-1.7c0-0.6,0.1-1.2,0.4-1.7c0.3-0.4,0.6-0.8,1.1-1.1
		c0.5-0.3,1-0.5,1.5-0.6c0.6-0.1,1.2-0.2,1.8-0.2c0.4,0,0.7,0,1.1,0.1c0.3,0,0.5,0.1,0.8,0.1V68c0-0.5-0.2-1-0.5-1.3
		c-0.5-0.4-1.1-0.6-1.7-0.5c-0.5,0-1.1,0-1.6,0.1c-0.5,0.1-0.9,0.2-1.4,0.3l-0.4-2.6c0.2-0.1,0.4-0.1,0.7-0.2s0.6-0.1,0.9-0.2
		c0.3,0,0.7-0.1,1-0.1C80.7,63.6,81.1,63.6,81.5,63.6"/>
	<path id="Path_5" class="st0" d="M88.8,64.3c0.7-0.2,1.4-0.3,2.1-0.4c0.9-0.1,1.8-0.2,2.7-0.2c0.8,0,1.6,0.1,2.4,0.4
		c0.6,0.2,1.1,0.6,1.5,1.1c0.4,0.5,0.6,1,0.8,1.6c0.2,0.7,0.2,1.4,0.2,2.1v6.3h-3.2v-5.9c0.1-0.7-0.1-1.5-0.4-2.2
		c-0.4-0.5-0.9-0.7-1.5-0.6c-0.2,0-0.5,0-0.7,0c-0.3,0-0.5,0-0.7,0.1v8.6h-3.2L88.8,64.3z"/>
	<path id="Path_6" class="st0" d="M42.4,69.4c0-3.4-2.1-5.7-5.2-5.8c-0.9-0.1-1.8,0-2.7,0.2v-5.3l-3.2,0.5l0,5.5
		c-0.8,0.3-1.6,0.8-2.3,1.3c0.1,0.3,1,2.6,1,2.6c0.5-0.4,1.1-0.7,1.7-1v0c1.5-0.8,3.6-1.6,5.4-1.3c0.6,0.1,1.2,0.5,1.5,1
		c0.4,0.7,0.6,1.5,0.6,2.3c0,0.8-0.2,1.6-0.6,2.3c-0.2,0.3-0.4,0.5-0.7,0.6c-0.3,0.1-0.7,0.2-1,0.2c-0.1,0-0.2,0-0.2,0
		c-0.4-0.1-0.9-0.3-1.2-0.6c-0.1-0.1-0.2-0.2-0.2-0.3c-0.2-0.3-0.4-0.7-0.4-1c-0.1-0.4-0.2-0.9-0.2-1.3c0-0.1,0-0.3,0-0.4
		c0-0.3,0.1-0.6,0.1-0.9c0-0.1,0-0.1,0.1-0.2c-1.3,0.2-2.5,0.7-3.5,1.5c0,0.1,0-0.1,0,0v0.1c0,0.8,0.1,1.6,0.4,2.4
		c0.2,0.7,0.6,1.3,1.1,1.9c0.2,0.2,0.5,0.4,0.7,0.6c0.9,0.7,2,1,3.1,1h0.2c0.8,0,1.5-0.1,2.3-0.4c0.7-0.3,1.2-0.7,1.7-1.2
		c0.5-0.5,0.9-1.2,1.1-1.9c0.3-0.7,0.4-1.5,0.4-2.3v0C42.4,69.5,42.4,69.5,42.4,69.4L42.4,69.4C42.4,69.4,42.4,69.4,42.4,69.4"/>
</g>
</svg>